# xmcd
#
# Track frame offsets: 
#        187
#        20787
#        38822
#        57080
#        76630
#        94225
#        118697
#        140422
#        159922
#        174997
#
# Disc length: 2486 seconds
#
# Revision: 3
# Processed by: cddbd v1.5.2PL0 Copyright (c) Steve Scherf et al.
# Submitted via: ExactAudioCopy v0.99pb4
#
DISCID=7409b40a
DTITLE=Alabama - The Closer You Get...
DYEAR=1900
DGENRE=Country
TTITLE0=The Closer You Get
TTITLE1=Lady Down On Love
TTITLE2=She Put The Sad In All His Songs
TTITLE3=Red River
TTITLE4=What In The Name Of Love
TTITLE5=Dixieland Delight
TTITLE6=Very Special Love
TTITLE7=Dixie Boy
TTITLE8=Alabama Sky
TTITLE9=Lovin' Man
EXTD=
EXTT0=
EXTT1=
EXTT2=
EXTT3=
EXTT4=
EXTT5=
EXTT6=
EXTT7=
EXTT8=
EXTT9=
PLAYORDER=
